<svg width="26" height="26" viewBox="0 0 26 26" fill="none" xmlns="http://www.w3.org/2000/svg">
<path d="M6.16665 25.6667H2.66665C2.02498 25.6667 1.47587 25.4384 1.01931 24.9818C0.562757 24.5253 0.334091 23.9758 0.333313 23.3333V19.8333H2.66665V23.3333H6.16665V25.6667ZM20.1666 25.6667V23.3333H23.6666V19.8333H26V23.3333C26 23.975 25.7717 24.5245 25.3151 24.9818C24.8586 25.4392 24.3091 25.6674 23.6666 25.6667H20.1666ZM13.1666 20.4167C10.8333 20.4167 8.71892 19.7264 6.82348 18.3458C4.92804 16.9653 3.54242 15.1278 2.66665 12.8333C3.54165 10.5389 4.92726 8.70139 6.82348 7.32083C8.7197 5.94028 10.8341 5.25 13.1666 5.25C15.4992 5.25 17.614 5.94028 19.511 7.32083C21.408 8.70139 22.7932 10.5389 23.6666 12.8333C22.7916 15.1278 21.4064 16.9653 19.511 18.3458C17.6155 19.7264 15.5008 20.4167 13.1666 20.4167ZM13.1666 16.9167C14.2944 16.9167 15.2569 16.5181 16.0541 15.7208C16.8514 14.9236 17.25 13.9611 17.25 12.8333C17.25 11.7056 16.8514 10.7431 16.0541 9.94583C15.2569 9.14861 14.2944 8.75 13.1666 8.75C12.0389 8.75 11.0764 9.14861 10.2791 9.94583C9.48192 10.7431 9.08331 11.7056 9.08331 12.8333C9.08331 13.9611 9.48192 14.9236 10.2791 15.7208C11.0764 16.5181 12.0389 16.9167 13.1666 16.9167ZM13.1666 14.5833C12.6805 14.5833 12.2675 14.4134 11.9276 14.0735C11.5878 13.7336 11.4174 13.3202 11.4166 12.8333C11.4159 12.3464 11.5862 11.9334 11.9276 11.5943C12.2691 11.2552 12.6821 11.0849 13.1666 11.0833C13.6512 11.0818 14.0646 11.2521 14.4068 11.5943C14.749 11.9366 14.919 12.3496 14.9166 12.8333C14.9143 13.3171 14.7444 13.7305 14.4068 14.0735C14.0693 14.4165 13.6559 14.5864 13.1666 14.5833ZM0.333313 5.83333V2.33333C0.333313 1.69167 0.56198 1.14256 1.01931 0.686C1.47665 0.229444 2.02576 0.000777778 2.66665 0H6.16665V2.33333H2.66665V5.83333H0.333313ZM23.6666 5.83333V2.33333H20.1666V0H23.6666C24.3083 0 24.8578 0.228667 25.3151 0.686C25.7725 1.14333 26.0008 1.69244 26 2.33333V5.83333H23.6666Z" fill="white"/>
</svg>
