<svg width="21" height="14" viewBox="0 0 21 14" fill="none" xmlns="http://www.w3.org/2000/svg">
<path d="M1.16667 14C0.836115 14 0.559226 13.888 0.336004 13.664C0.112782 13.44 0.000781801 13.1631 4.02298e-06 12.8333C-0.000773755 12.5036 0.111226 12.2267 0.336004 12.0027C0.560782 11.7787 0.837671 11.6667 1.16667 11.6667H19.8333C20.1639 11.6667 20.4412 11.7787 20.6652 12.0027C20.8892 12.2267 21.0008 12.5036 21 12.8333C20.9992 13.1631 20.8872 13.4404 20.664 13.6652C20.4408 13.8899 20.1639 14.0016 19.8333 14H1.16667ZM1.16667 8.16667C0.836115 8.16667 0.559226 8.05467 0.336004 7.83067C0.112782 7.60667 0.000781801 7.32978 4.02298e-06 7C-0.000773755 6.67022 0.111226 6.39333 0.336004 6.16933C0.560782 5.94533 0.837671 5.83333 1.16667 5.83333H19.8333C20.1639 5.83333 20.4412 5.94533 20.6652 6.16933C20.8892 6.39333 21.0008 6.67022 21 7C20.9992 7.32978 20.8872 7.60706 20.664 7.83183C20.4408 8.05661 20.1639 8.16822 19.8333 8.16667H1.16667ZM1.16667 2.33333C0.836115 2.33333 0.559226 2.22133 0.336004 1.99733C0.112782 1.77333 0.000781801 1.49644 4.02298e-06 1.16667C-0.000773755 0.836889 0.111226 0.56 0.336004 0.336C0.560782 0.112 0.837671 0 1.16667 0H19.8333C20.1639 0 20.4412 0.112 20.6652 0.336C20.8892 0.56 21.0008 0.836889 21 1.16667C20.9992 1.49644 20.8872 1.77372 20.664 1.9985C20.4408 2.22328 20.1639 2.33489 19.8333 2.33333H1.16667Z" fill="white"/>
</svg>
