<svg width="128" height="128" viewBox="0 0 128 128" fill="none" xmlns="http://www.w3.org/2000/svg">
<path d="M128 64C128 76.658 124.246 89.0317 117.214 99.5565C110.182 110.081 100.186 118.284 88.4917 123.128C76.7973 127.972 63.929 129.24 51.5142 126.77C39.0994 124.301 27.6957 118.205 18.7452 109.255L30.0589 97.9411C36.7718 104.654 45.3246 109.226 54.6357 111.078C63.9468 112.93 73.598 111.979 82.3688 108.346C91.1397 104.713 98.6362 98.5609 103.911 90.6674C109.185 82.7738 112 73.4935 112 64H128Z" fill="#EDC9C6"/>
<path d="M18.7452 109.255C9.373 99.8827 3.14183 87.8319 0.912111 74.7665C-1.31761 61.7012 0.564115 48.2659 6.29744 36.3158L20.7231 43.2368C16.4231 52.1994 15.0118 62.2759 16.6841 72.0749C18.3564 81.8739 23.0298 90.912 30.0589 97.9411L18.7452 109.255Z" fill="#BC95E1"/>
<path d="M6.32576 36.2569C12.6117 23.1893 23.149 12.6437 36.2116 6.34755C49.2742 0.0513787 64.0878 -1.62215 78.2259 1.60109C92.364 4.82433 104.988 12.7533 114.031 24.0891C123.074 35.425 127.999 49.4957 128 63.9965L112 63.9974C111.999 53.1218 108.306 42.5687 101.523 34.0668C94.7413 25.5649 85.273 19.6182 74.6694 17.2008C64.0659 14.7834 52.9557 16.0385 43.1587 20.7607C33.3617 25.4828 25.4588 33.392 20.7443 43.1926L6.32576 36.2569Z" fill="#5ACFF1"/>
</svg>
